<svg xmlns="http://www.w3.org/2000/svg" xmlns:xlink="http://www.w3.org/1999/xlink" viewBox="0 0 687.6 240.36"><defs><style>.cls-1{fill:none;}.cls-2{clip-path:url(#clip-path);}.cls-3{fill:#eb6101;}.cls-4{fill:#eb6001;}.cls-5{fill:#ea5f01;}.cls-6{fill:#ea5e01;}.cls-7{fill:#e95e02;}.cls-8{fill:#e85d02;}.cls-9{fill:#e85c02;}.cls-10{fill:#e75c02;}.cls-11{fill:#e75b02;}.cls-12{fill:#e65a02;}.cls-13{fill:#e55a03;}.cls-14{fill:#e55903;}.cls-15{fill:#e45803;}.cls-16{fill:#e35803;}.cls-17{fill:#e35703;}.cls-18{fill:#e25603;}.cls-19{fill:#e15503;}.cls-20{fill:#e15504;}.cls-21{fill:#e05404;}.cls-22{fill:#e05304;}.cls-23{fill:#df5304;}.cls-24{fill:#de5204;}.cls-25{fill:#de5104;}.cls-26{fill:#dd5104;}.cls-27{fill:#dc5004;}.cls-28{fill:#dc4f04;}.cls-29{fill:#db4e05;}.cls-30{fill:#da4e05;}.cls-31{fill:#da4d05;}.cls-32{fill:#d94c05;}.cls-33{fill:#d84c05;}.cls-34{fill:#d74b05;}.cls-35{fill:#d74a05;}.cls-36{fill:#d64a05;}.cls-37{fill:#d54905;}.cls-38{fill:#d54805;}.cls-39{fill:#d44705;}.cls-40{fill:#d34705;}.cls-41{fill:#d34605;}.cls-42{fill:#d24505;}.cls-43{fill:#d14406;}.cls-44{fill:#d04406;}.cls-45{fill:#d04306;}.cls-46{fill:#cf4206;}.cls-47{fill:#ce4206;}.cls-48{fill:#ce4106;}.cls-49{fill:#cd4006;}.cls-50{fill:#cc3f06;}.cls-51{fill:#cb3f06;}.cls-52{fill:#cb3e05;}.cls-53{fill:#ca3d05;}.cls-54{fill:#c93c05;}.cls-55{fill:#c83b05;}.cls-56{fill:#c73a05;}.cls-57{fill:#c63905;}.cls-58{fill:#c53805;}.cls-59{fill:#c43705;}.cls-60{fill:#c33605;}.cls-61{fill:#c33505;}.cls-62{fill:#c23505;}.cls-63{fill:#c13405;}.cls-64{fill:#c03304;}.cls-65{fill:#c03204;}.cls-66{fill:#bf3204;}.cls-67{fill:#be3104;}.cls-68{fill:#bd3004;}.cls-69{fill:#bd2f04;}.cls-70{fill:#bc2f04;}.cls-71{fill:#bb2e04;}.cls-72{fill:#bb2d04;}.cls-73{fill:#ba2c03;}.cls-74{fill:#b92c03;}.cls-75{fill:#b82b03;}.cls-76{fill:#b82a03;}.cls-77{clip-path:url(#clip-path-2);}.cls-78{clip-path:url(#clip-path-3);}.cls-79{fill:#fff;}</style><clipPath id="clip-path"><path class="cls-1" d="M537.1,130.54c37.77,1.87,95.46-11.2,84.12-46.83h0v0h0c-11.47-35.72-66.36-12.57-95.94,11C538.74,59.35,544.14.29,506.7.1h0c-37.58-.1-32.4,59.44-19.05,94.84-29.49-23.66-84.25-47-95.87-11.32h0v0h0c-11.56,35.7,46.55,49,84.34,47.09-31.58,20.83-70.46,65.65-40.16,87.66h0c30.32,21.93,60.74-28.92,70.69-65.43,10,36.49,40.28,87.09,70.58,65.27h0v0h0C607.6,196.27,568.67,151.38,537.1,130.54Z"/></clipPath><clipPath id="clip-path-2"><path class="cls-1" d="M488.78,125.45c-14.35,15.18-28.16,47-23.9,50.13h0c4.29,3.15,30.78-19.59,41-37.81C515.87,156.1,542,179,546.34,176h0c4.31-3.12-9.2-35.21-23.43-50.5,20.53-3.89,50.36-21.6,48.77-26.66h0c-1.64-5.06-36.39-2.14-55.33,6.66C519,84.71,511.26,50.83,506,50.8h0c-5.31,0-13.19,33.89-10.67,54.62-18.88-8.92-53.4-12.12-55.08-7.09h0C438.56,103.38,468.29,121.4,488.78,125.45Z"/></clipPath><clipPath id="clip-path-3"><path class="cls-1" d="M616.48,179.69c-17.12-.8-43.25,5.19-38.05,21.32h0c5.24,16.17,30.08,5.6,43.46-5.11-6.06,16-8.44,42.79,8.54,42.84h0c17,0,14.6-27,8.51-43,13.4,10.68,38.23,21.17,43.45,5h0c5.19-16.19-21.16-22.12-38.28-21.23,14.28-9.47,31.84-29.83,18.09-39.77h0c-13.77-9.89-27.48,13.19-32,29.74-4.56-16.51-18.36-39.4-32.06-29.48h0C584.45,150,602.15,170.28,616.48,179.69Z"/></clipPath></defs><title>logo_white</title><g id="Layer_2" data-name="Layer 2"><g id="圖層_1" data-name="圖層 1"><g class="cls-2"><rect class="cls-3" x="380.17" width="252.39" height="240.36"/><circle class="cls-3" cx="505.73" cy="120.34" r="60.8"/><circle class="cls-4" cx="505.73" cy="120.34" r="60.01"/><circle class="cls-4" cx="505.73" cy="120.34" r="59.22"/><circle class="cls-5" cx="505.73" cy="120.34" r="58.43"/><circle class="cls-6" cx="505.73" cy="120.34" r="57.64"/><circle class="cls-7" cx="505.73" cy="120.34" r="56.85"/><circle class="cls-8" cx="505.73" cy="120.34" r="56.06"/><circle class="cls-9" cx="505.73" cy="120.34" r="55.28"/><circle class="cls-10" cx="505.73" cy="120.34" r="54.49"/><circle class="cls-11" cx="505.73" cy="120.34" r="53.7"/><circle class="cls-12" cx="505.73" cy="120.34" r="52.91"/><circle class="cls-13" cx="505.73" cy="120.34" r="52.12"/><circle class="cls-14" cx="505.73" cy="120.34" r="51.33"/><circle class="cls-15" cx="505.73" cy="120.34" r="50.54"/><circle class="cls-16" cx="505.73" cy="120.34" r="49.75"/><circle class="cls-17" cx="505.73" cy="120.34" r="48.96"/><circle class="cls-18" cx="505.73" cy="120.34" r="48.17"/><circle class="cls-19" cx="505.73" cy="120.34" r="47.38"/><circle class="cls-20" cx="505.73" cy="120.34" r="46.59"/><circle class="cls-21" cx="505.73" cy="120.34" r="45.8"/><circle class="cls-22" cx="505.73" cy="120.34" r="45.01"/><circle class="cls-23" cx="505.73" cy="120.34" r="44.22"/><circle class="cls-24" cx="505.73" cy="120.34" r="43.43"/><circle class="cls-25" cx="505.73" cy="120.34" r="42.64"/><circle class="cls-26" cx="505.73" cy="120.34" r="41.85"/><circle class="cls-27" cx="505.73" cy="120.34" r="41.06"/><circle class="cls-28" cx="505.73" cy="120.34" r="40.27"/><circle class="cls-29" cx="505.73" cy="120.34" r="39.48"/><circle class="cls-30" cx="505.73" cy="120.34" r="38.69"/><circle class="cls-31" cx="505.73" cy="120.34" r="37.9"/><circle class="cls-32" cx="505.73" cy="120.34" r="37.11"/><circle class="cls-33" cx="505.73" cy="120.34" r="36.32"/><circle class="cls-34" cx="505.73" cy="120.34" r="35.53"/><circle class="cls-35" cx="505.73" cy="120.34" r="34.74"/><circle class="cls-36" cx="505.73" cy="120.34" r="33.95"/><circle class="cls-37" cx="505.73" cy="120.34" r="33.17"/><circle class="cls-38" cx="505.73" cy="120.34" r="32.38"/><circle class="cls-39" cx="505.73" cy="120.34" r="31.59"/><circle class="cls-40" cx="505.73" cy="120.34" r="30.8"/><circle class="cls-41" cx="505.73" cy="120.34" r="30.01"/><circle class="cls-42" cx="505.73" cy="120.34" r="29.22"/><circle class="cls-43" cx="505.73" cy="120.34" r="28.43"/><circle class="cls-44" cx="505.73" cy="120.34" r="27.64"/><circle class="cls-45" cx="505.73" cy="120.34" r="26.85"/><circle class="cls-46" cx="505.73" cy="120.34" r="26.06"/><circle class="cls-47" cx="505.73" cy="120.34" r="25.27"/><circle class="cls-48" cx="505.73" cy="120.34" r="24.48"/><circle class="cls-49" cx="505.73" cy="120.34" r="23.69"/><circle class="cls-50" cx="505.73" cy="120.34" r="22.9"/><circle class="cls-51" cx="505.73" cy="120.34" r="22.11"/><circle class="cls-52" cx="505.73" cy="120.34" r="21.32"/><circle class="cls-53" cx="505.73" cy="120.34" r="20.53"/><circle class="cls-54" cx="505.73" cy="120.34" r="19.74"/><circle class="cls-54" cx="505.73" cy="120.34" r="18.95"/><circle class="cls-55" cx="505.73" cy="120.34" r="18.16"/><circle class="cls-56" cx="505.73" cy="120.34" r="17.37"/><circle class="cls-57" cx="505.73" cy="120.34" r="16.58"/><circle class="cls-57" cx="505.73" cy="120.34" r="15.79"/><circle class="cls-58" cx="505.73" cy="120.34" r="15"/><circle class="cls-59" cx="505.73" cy="120.34" r="14.21"/><circle class="cls-60" cx="505.73" cy="120.34" r="13.42"/><circle class="cls-61" cx="505.73" cy="120.34" r="12.63"/><circle class="cls-62" cx="505.73" cy="120.34" r="11.84"/><circle class="cls-63" cx="505.73" cy="120.34" r="11.06"/><circle class="cls-64" cx="505.73" cy="120.34" r="10.27"/><circle class="cls-65" cx="505.73" cy="120.34" r="9.48"/><circle class="cls-66" cx="505.73" cy="120.34" r="8.69"/><circle class="cls-67" cx="505.73" cy="120.34" r="7.9"/><circle class="cls-68" cx="505.73" cy="120.34" r="7.11"/><circle class="cls-69" cx="505.73" cy="120.34" r="6.32"/><circle class="cls-70" cx="505.73" cy="120.34" r="5.53"/><circle class="cls-71" cx="505.73" cy="120.34" r="4.74"/><circle class="cls-72" cx="505.73" cy="120.34" r="3.95"/><circle class="cls-73" cx="505.73" cy="120.34" r="3.16"/><circle class="cls-74" cx="505.73" cy="120.34" r="2.37"/><circle class="cls-75" cx="505.73" cy="120.34" r="1.58"/><circle class="cls-76" cx="505.73" cy="120.34" r="0.79"/></g><g class="cls-77"><rect class="cls-3" x="438.56" y="50.8" width="134.71" height="128.24"/><circle class="cls-3" cx="506.24" cy="119.74" r="34.32"/><circle class="cls-4" cx="506.24" cy="119.74" r="33.87"/><circle class="cls-4" cx="506.24" cy="119.74" r="33.43"/><circle class="cls-5" cx="506.24" cy="119.74" r="32.98"/><circle class="cls-6" cx="506.24" cy="119.74" r="32.53"/><circle class="cls-7" cx="506.24" cy="119.74" r="32.09"/><circle class="cls-8" cx="506.24" cy="119.74" r="31.64"/><circle class="cls-9" cx="506.24" cy="119.74" r="31.2"/><circle class="cls-10" cx="506.24" cy="119.74" r="30.75"/><circle class="cls-11" cx="506.24" cy="119.74" r="30.31"/><circle class="cls-12" cx="506.24" cy="119.74" r="29.86"/><circle class="cls-13" cx="506.24" cy="119.74" r="29.41"/><circle class="cls-14" cx="506.24" cy="119.74" r="28.97"/><circle class="cls-15" cx="506.24" cy="119.74" r="28.52"/><circle class="cls-16" cx="506.24" cy="119.74" r="28.08"/><circle class="cls-17" cx="506.24" cy="119.74" r="27.63"/><circle class="cls-18" cx="506.24" cy="119.74" r="27.19"/><circle class="cls-19" cx="506.24" cy="119.74" r="26.74"/><circle class="cls-20" cx="506.24" cy="119.74" r="26.29"/><circle class="cls-21" cx="506.24" cy="119.74" r="25.85"/><circle class="cls-22" cx="506.24" cy="119.74" r="25.4"/><circle class="cls-23" cx="506.24" cy="119.74" r="24.96"/><circle class="cls-24" cx="506.24" cy="119.74" r="24.51"/><circle class="cls-25" cx="506.24" cy="119.74" r="24.07"/><circle class="cls-26" cx="506.24" cy="119.74" r="23.62"/><circle class="cls-27" cx="506.24" cy="119.74" r="23.17"/><circle class="cls-28" cx="506.24" cy="119.74" r="22.73"/><circle class="cls-29" cx="506.24" cy="119.74" r="22.28"/><circle class="cls-30" cx="506.24" cy="119.74" r="21.84"/><circle class="cls-31" cx="506.24" cy="119.74" r="21.39"/><circle class="cls-32" cx="506.24" cy="119.74" r="20.95"/><circle class="cls-33" cx="506.24" cy="119.74" r="20.5"/><circle class="cls-34" cx="506.24" cy="119.74" r="20.06"/><circle class="cls-35" cx="506.24" cy="119.74" r="19.61"/><circle class="cls-36" cx="506.24" cy="119.74" r="19.16"/><circle class="cls-37" cx="506.24" cy="119.74" r="18.72"/><circle class="cls-38" cx="506.24" cy="119.74" r="18.27"/><circle class="cls-39" cx="506.24" cy="119.74" r="17.83"/><circle class="cls-40" cx="506.24" cy="119.74" r="17.38"/><circle class="cls-41" cx="506.24" cy="119.74" r="16.94"/><circle class="cls-42" cx="506.24" cy="119.74" r="16.49"/><circle class="cls-43" cx="506.24" cy="119.74" r="16.04"/><circle class="cls-44" cx="506.24" cy="119.74" r="15.6"/><circle class="cls-45" cx="506.24" cy="119.74" r="15.15"/><circle class="cls-46" cx="506.24" cy="119.74" r="14.71"/><circle class="cls-47" cx="506.24" cy="119.74" r="14.26"/><circle class="cls-48" cx="506.24" cy="119.74" r="13.82"/><circle class="cls-49" cx="506.24" cy="119.74" r="13.37"/><circle class="cls-50" cx="506.24" cy="119.74" r="12.92"/><circle class="cls-51" cx="506.24" cy="119.74" r="12.48"/><circle class="cls-52" cx="506.24" cy="119.74" r="12.03"/><circle class="cls-53" cx="506.24" cy="119.74" r="11.59"/><circle class="cls-54" cx="506.24" cy="119.74" r="11.14"/><circle class="cls-54" cx="506.24" cy="119.74" r="10.7"/><circle class="cls-55" cx="506.24" cy="119.74" r="10.25"/><circle class="cls-56" cx="506.24" cy="119.74" r="9.8"/><circle class="cls-57" cx="506.24" cy="119.74" r="9.36"/><circle class="cls-57" cx="506.24" cy="119.74" r="8.91"/><circle class="cls-58" cx="506.24" cy="119.74" r="8.47"/><circle class="cls-59" cx="506.24" cy="119.74" r="8.02"/><circle class="cls-60" cx="506.24" cy="119.74" r="7.58"/><circle class="cls-61" cx="506.24" cy="119.74" r="7.13"/><circle class="cls-62" cx="506.24" cy="119.74" r="6.69"/><circle class="cls-63" cx="506.24" cy="119.74" r="6.24"/><circle class="cls-64" cx="506.24" cy="119.74" r="5.79"/><circle class="cls-65" cx="506.24" cy="119.74" r="5.35"/><circle class="cls-66" cx="506.24" cy="119.74" r="4.9"/><circle class="cls-67" cx="506.24" cy="119.74" r="4.46"/><circle class="cls-68" cx="506.24" cy="119.74" r="4.01"/><circle class="cls-69" cx="506.24" cy="119.74" r="3.57"/><circle class="cls-70" cx="506.24" cy="119.74" r="3.12"/><circle class="cls-71" cx="506.24" cy="119.74" r="2.67"/><circle class="cls-72" cx="506.24" cy="119.74" r="2.23"/><circle class="cls-73" cx="506.24" cy="119.74" r="1.78"/><circle class="cls-74" cx="506.24" cy="119.74" r="1.34"/><circle class="cls-75" cx="506.24" cy="119.74" r="0.89"/><circle class="cls-76" cx="506.24" cy="119.74" r="0.45"/></g><g class="cls-78"><rect class="cls-3" x="573.23" y="129.83" width="114.36" height="108.92"/><circle class="cls-3" cx="630.72" cy="184.46" r="27.56"/><circle class="cls-4" cx="630.72" cy="184.46" r="27.2"/><circle class="cls-4" cx="630.72" cy="184.46" r="26.85"/><circle class="cls-5" cx="630.72" cy="184.46" r="26.49"/><circle class="cls-6" cx="630.72" cy="184.46" r="26.13"/><circle class="cls-7" cx="630.72" cy="184.46" r="25.77"/><circle class="cls-8" cx="630.72" cy="184.46" r="25.41"/><circle class="cls-9" cx="630.72" cy="184.46" r="25.06"/><circle class="cls-10" cx="630.72" cy="184.46" r="24.7"/><circle class="cls-11" cx="630.72" cy="184.46" r="24.34"/><circle class="cls-12" cx="630.72" cy="184.46" r="23.98"/><circle class="cls-13" cx="630.72" cy="184.46" r="23.62"/><circle class="cls-14" cx="630.72" cy="184.46" r="23.27"/><circle class="cls-15" cx="630.72" cy="184.46" r="22.91"/><circle class="cls-16" cx="630.72" cy="184.46" r="22.55"/><circle class="cls-17" cx="630.72" cy="184.46" r="22.19"/><circle class="cls-18" cx="630.72" cy="184.46" r="21.84"/><circle class="cls-19" cx="630.72" cy="184.46" r="21.48"/><circle class="cls-20" cx="630.72" cy="184.46" r="21.12"/><circle class="cls-21" cx="630.72" cy="184.46" r="20.76"/><circle class="cls-22" cx="630.72" cy="184.46" r="20.4"/><circle class="cls-23" cx="630.72" cy="184.46" r="20.05"/><circle class="cls-24" cx="630.72" cy="184.46" r="19.69"/><circle class="cls-25" cx="630.72" cy="184.46" r="19.33"/><circle class="cls-26" cx="630.72" cy="184.46" r="18.97"/><circle class="cls-27" cx="630.72" cy="184.46" r="18.61"/><circle class="cls-28" cx="630.72" cy="184.46" r="18.26"/><circle class="cls-29" cx="630.72" cy="184.46" r="17.9"/><circle class="cls-30" cx="630.72" cy="184.46" r="17.54"/><circle class="cls-31" cx="630.72" cy="184.46" r="17.18"/><circle class="cls-32" cx="630.72" cy="184.46" r="16.82"/><circle class="cls-33" cx="630.72" cy="184.46" r="16.47"/><circle class="cls-34" cx="630.72" cy="184.46" r="16.11"/><circle class="cls-35" cx="630.72" cy="184.46" r="15.75"/><circle class="cls-36" cx="630.72" cy="184.46" r="15.39"/><circle class="cls-37" cx="630.72" cy="184.46" r="15.03"/><circle class="cls-38" cx="630.72" cy="184.46" r="14.68"/><circle class="cls-39" cx="630.72" cy="184.46" r="14.32"/><circle class="cls-40" cx="630.72" cy="184.46" r="13.96"/><circle class="cls-41" cx="630.72" cy="184.46" r="13.6"/><circle class="cls-42" cx="630.72" cy="184.46" r="13.24"/><circle class="cls-43" cx="630.72" cy="184.46" r="12.89"/><circle class="cls-44" cx="630.72" cy="184.46" r="12.53"/><circle class="cls-45" cx="630.72" cy="184.46" r="12.17"/><circle class="cls-46" cx="630.72" cy="184.46" r="11.81"/><circle class="cls-47" cx="630.72" cy="184.46" r="11.45"/><circle class="cls-48" cx="630.72" cy="184.46" r="11.1"/><circle class="cls-49" cx="630.72" cy="184.46" r="10.74"/><circle class="cls-50" cx="630.72" cy="184.46" r="10.38"/><circle class="cls-51" cx="630.72" cy="184.46" r="10.02"/><circle class="cls-52" cx="630.72" cy="184.46" r="9.66"/><circle class="cls-53" cx="630.72" cy="184.46" r="9.31"/><circle class="cls-54" cx="630.72" cy="184.46" r="8.95"/><circle class="cls-54" cx="630.72" cy="184.46" r="8.59"/><circle class="cls-55" cx="630.72" cy="184.46" r="8.23"/><circle class="cls-56" cx="630.72" cy="184.46" r="7.87"/><circle class="cls-57" cx="630.72" cy="184.46" r="7.52"/><circle class="cls-57" cx="630.72" cy="184.46" r="7.16"/><circle class="cls-58" cx="630.72" cy="184.46" r="6.8"/><circle class="cls-59" cx="630.72" cy="184.46" r="6.44"/><circle class="cls-60" cx="630.72" cy="184.46" r="6.09"/><circle class="cls-61" cx="630.72" cy="184.46" r="5.73"/><circle class="cls-62" cx="630.72" cy="184.46" r="5.37"/><circle class="cls-63" cx="630.72" cy="184.46" r="5.01"/><circle class="cls-64" cx="630.72" cy="184.46" r="4.65"/><circle class="cls-65" cx="630.72" cy="184.46" r="4.3"/><circle class="cls-66" cx="630.72" cy="184.46" r="3.94"/><circle class="cls-67" cx="630.72" cy="184.46" r="3.58"/><circle class="cls-68" cx="630.72" cy="184.46" r="3.22"/><circle class="cls-69" cx="630.72" cy="184.46" r="2.86"/><circle class="cls-70" cx="630.72" cy="184.46" r="2.51"/><circle class="cls-71" cx="630.72" cy="184.46" r="2.15"/><circle class="cls-72" cx="630.72" cy="184.46" r="1.79"/><circle class="cls-73" cx="630.72" cy="184.46" r="1.43"/><circle class="cls-74" cx="630.72" cy="184.46" r="1.07"/><circle class="cls-75" cx="630.72" cy="184.46" r="0.72"/><circle class="cls-76" cx="630.72" cy="184.46" r="0.36"/></g><path class="cls-79" d="M47.89,98.91h0v-2h0a1.16,1.16,0,0,1,1.17-1.16h.2a42,42,0,0,1,32.34,27.76h0a1,1,0,0,1,.06.35,1.17,1.17,0,0,1-1.17,1.17H54.73a1.18,1.18,0,0,1-.84-.69h0l-2-4.92A56.77,56.77,0,0,1,47.89,98.91ZM24,138.68h0v0h0a1,1,0,0,0,.09-.43A1.17,1.17,0,0,0,23,137.06H1.17A1.18,1.18,0,0,0,0,138.22v0A41.76,41.76,0,0,0,11.19,165.6l0,0a1.13,1.13,0,0,0,.83.35,1.19,1.19,0,0,0,1.08-.72h0ZM61,173.2h0v0l-13.14-32,0,0a6.36,6.36,0,0,0-11.64-.42l-13.35,32.5h0a1.13,1.13,0,0,0-.09.45,1.18,1.18,0,0,0,.58,1s0,0,.05,0a42,42,0,0,0,37.08,0l0,0a1.15,1.15,0,0,0,.62-1,1,1,0,0,0-.09-.43ZM83.8,138.28v0h0a1.17,1.17,0,0,0-1.17-1.17H60.85a1.18,1.18,0,0,0-1.08,1.63h0l10.9,26.56h0a1.16,1.16,0,0,0,1.07.72,1.17,1.17,0,0,0,.82-.34l0,0A41.78,41.78,0,0,0,83.8,138.28ZM3.32,125.09h25.6a1.19,1.19,0,0,0,1-.73h0l2-4.93a56.5,56.5,0,0,0,4-20.52h0v-2h0a1.16,1.16,0,0,0-1.16-1.16h-.21A41.94,41.94,0,0,0,2.22,123.54a0,0,0,0,0,0,0,1,1,0,0,0-.06.35A1.17,1.17,0,0,0,3.32,125.09Z"/><path class="cls-79" d="M583.48,144.88a.11.11,0,0,0-.09,0h-5.64a.14.14,0,0,0-.12.1l-1.43,3.92-.55-.91c-1.49-2.49-4.6-3.86-8.77-3.86A23.07,23.07,0,0,0,554.11,148a15.35,15.35,0,0,0-6.7,7.89c-1.1,3-.82,5.89.81,8,1.88,2.43,5.38,3.76,9.86,3.76a22,22,0,0,0,9.56-2.43h0a2.16,2.16,0,0,1,.93-.23,1.18,1.18,0,0,1,1,.42,1.42,1.42,0,0,1,.16,1.23l-.05.13a.17.17,0,0,0,0,.1.13.13,0,0,0,.09,0h5.64a.15.15,0,0,0,.13-.1L583.49,145A.09.09,0,0,0,583.48,144.88Zm-10,10.94a10.45,10.45,0,0,1-3.58,4.63,14.51,14.51,0,0,1-8.73,2.85h-.23c-3.14,0-5.69-1.12-6.81-3a4.85,4.85,0,0,1-.25-4.23,10.56,10.56,0,0,1,3.65-4.72,14.86,14.86,0,0,1,8.93-2.92h.25c3.09,0,5.48,1,6.55,2.83A5.21,5.21,0,0,1,573.44,155.82Z"/><path class="cls-79" d="M534.14,144.09a16.63,16.63,0,0,0-8.29,2.16,1.92,1.92,0,0,1-.8.2,1,1,0,0,1-.82-.38,1.22,1.22,0,0,1-.09-1.1.08.08,0,0,0,0-.09.09.09,0,0,0-.08,0h-5.49a.14.14,0,0,0-.13.09l-7.94,21.83a.08.08,0,0,0,0,.09.09.09,0,0,0,.08,0h6.19a.15.15,0,0,0,.13-.09l3.9-10.73c.69-1.89,2.78-7.64,10.68-7.64,2.83,0,4.91,1,5.56,2.61.55,1.37,0,3.23-.64,5l-3.89,10.69a.1.1,0,0,0,0,.09.09.09,0,0,0,.08,0h6.2a.14.14,0,0,0,.12-.09l4.53-12.44c1.1-3,.91-5.65-.53-7.17C540.81,145.05,538.1,144.09,534.14,144.09Z"/><path class="cls-79" d="M458.35,144.84h-6.26a.15.15,0,0,0-.13.09L444,166.76a.1.1,0,0,0,0,.09.09.09,0,0,0,.08,0h6.27a.14.14,0,0,0,.12-.09L458.45,145a.09.09,0,0,0-.1-.13Z"/><path class="cls-79" d="M512.1,148.59l1.32-3.62a.08.08,0,0,0,0-.09s0,0-.08,0h-4.39l2.77-7.59a.12.12,0,0,0,0-.1s-.05,0-.08,0h-6.26a.15.15,0,0,0-.13.09l-2.78,7.64h-3.59a.15.15,0,0,0-.13.09l-1.31,3.62a.1.1,0,0,0,0,.09.09.09,0,0,0,.08,0H501l-6.58,18.08a.09.09,0,0,0,.1.13h6.26a.15.15,0,0,0,.13-.09l6.59-18.12H512A.14.14,0,0,0,512.1,148.59Z"/><path class="cls-79" d="M479.94,143.8c-9.26,0-18.43,5.26-20.87,12a7.6,7.6,0,0,0,.81,7.23c2,2.91,6.17,4.65,11.05,4.65A25.5,25.5,0,0,0,488,161a.19.19,0,0,0,.06-.07,1,1,0,0,0,.22-.35.59.59,0,0,0,0-.54.56.56,0,0,0-.46-.21h-6.09a.12.12,0,0,0-.08,0,14.63,14.63,0,0,1-9,3c-2.85,0-5.14-.94-6.29-2.59a4.75,4.75,0,0,1-.43-4.54,10,10,0,0,1,4.55-5,15.16,15.16,0,0,1,7.39-2.18c3.51,0,6.19,1.43,7,3.73h-11a1.16,1.16,0,0,0-1,.74c0,.05,0,.11-.05.18a3,3,0,0,0,.57,2.37,2.74,2.74,0,0,0,2.12.86h15.11a1,1,0,0,0,.61-.21,1.25,1.25,0,0,0,.42-.57,7.76,7.76,0,0,0-.83-7.35C488.78,145.45,484.82,143.8,479.94,143.8Z"/><path class="cls-79" d="M626.89,147c-1.29-1.91-3.74-2.88-7.27-2.88a15.57,15.57,0,0,0-9,2.87,5,5,0,0,0-.88.64,2.58,2.58,0,0,0-.35-.62c-1-1.81-3.33-2.89-6.24-2.89a14,14,0,0,0-6.09,1.38H597a1.68,1.68,0,0,1-.73.23.51.51,0,0,1-.41-.18.67.67,0,0,1-.1-.54.12.12,0,0,0-.08-.16h-5.84a.28.28,0,0,0-.23.2L581.7,166.7a.15.15,0,0,0,0,.13.19.19,0,0,0,.07.06h6.37a.28.28,0,0,0,.24-.19l3.54-9.74c1.08-2.94,2.87-7.86,8.07-7.86,1.71,0,3.06.7,3.53,1.83.53,1.3-.19,3.29-.72,4.75l-4,11a.18.18,0,0,0,0,.13.13.13,0,0,0,.07.06h6.37a.29.29,0,0,0,.24-.19l3.68-10.11c.56-1.56,1.5-4.17,3-5.53a7.71,7.71,0,0,1,5.15-2c1.65,0,3,.65,3.39,1.67.52,1.19-.42,3.8-.83,4.91l-4,11a.18.18,0,0,0,0,.13.11.11,0,0,0,.07.06h6.37a.29.29,0,0,0,.24-.19L626.78,155C627.83,152.14,628.63,149.35,626.89,147Z"/><path class="cls-79" d="M452.05,137.85a.59.59,0,0,0,0-.54.52.52,0,0,0-.44-.2H445a.12.12,0,0,0-.1,0l-16.26,19.43a2.48,2.48,0,0,1-1.71.81,1.05,1.05,0,0,1-1.11-.81l-2.11-19.39a.11.11,0,0,0-.1-.09H417.1a1.17,1.17,0,0,0-1,.74.65.65,0,0,0,0,.33v0l4.1,28.6a.1.1,0,0,0,.1.08h6.53a.16.16,0,0,0,.1,0l25-28.66A1.46,1.46,0,0,0,452.05,137.85Z"/><path class="cls-79" d="M239.39,137.86a21.92,21.92,0,0,0,9.55-2.43H249a2.2,2.2,0,0,1,.93-.23,1.15,1.15,0,0,1,1,.42,1.42,1.42,0,0,1,.16,1.23l0,.13a.1.1,0,0,0,0,.09.09.09,0,0,0,.08.05h5.66a.12.12,0,0,0,.1-.07c.57-1.56,7.23-19.86,7.95-21.85a.12.12,0,0,0,0-.1.12.12,0,0,0-.08,0h-5.66a.11.11,0,0,0-.1.07l-1.44,3.94-.55-.91c-1.48-2.48-4.6-3.85-8.77-3.85a23,23,0,0,0-12.76,3.89,15.31,15.31,0,0,0-6.7,7.89c-1.11,3-.83,5.89.8,8C231.41,136.52,234.91,137.86,239.39,137.86Zm-4.24-11.57a10.63,10.63,0,0,1,3.65-4.72,14.86,14.86,0,0,1,8.93-2.93H248c3.09,0,5.48,1,6.55,2.84a5.21,5.21,0,0,1,.22,4.56,10.37,10.37,0,0,1-3.58,4.63,14.57,14.57,0,0,1-8.73,2.84h-.23c-3.14,0-5.68-1.12-6.8-3A4.82,4.82,0,0,1,235.15,126.29Z"/><path class="cls-79" d="M318,134.1c1.89,2.42,5.39,3.76,9.85,3.76a21.85,21.85,0,0,0,9.55-2.43h.05a2.23,2.23,0,0,1,.93-.23,1.15,1.15,0,0,1,1,.42,1.39,1.39,0,0,1,.17,1.23l-.05.13a.09.09,0,0,0,0,.09.1.1,0,0,0,.08.05h5.67a.1.1,0,0,0,.09-.07l8-21.85a.12.12,0,0,0,0-.1.1.1,0,0,0-.08,0h-5.66a.11.11,0,0,0-.1.07L346,119.06l-.55-.91c-1.49-2.48-4.6-3.85-8.77-3.85a23.09,23.09,0,0,0-12.77,3.89,15.28,15.28,0,0,0-6.69,7.89C316.09,129.12,316.37,132,318,134.1Zm5.62-7.81a10.56,10.56,0,0,1,3.65-4.72,14.86,14.86,0,0,1,8.93-2.93h.25c3.09,0,5.47,1,6.54,2.84a5.18,5.18,0,0,1,.22,4.56,10.35,10.35,0,0,1-3.57,4.63,14.57,14.57,0,0,1-8.73,2.84h-.23c-3.14,0-5.69-1.12-6.8-3A4.82,4.82,0,0,1,323.62,126.29Z"/><path class="cls-79" d="M198.92,115.12l-4.54,12.46c-1.1,3-.91,5.65.53,7.17,2.11,2.15,4.82,3.11,8.78,3.11a16.69,16.69,0,0,0,8.3-2.17,1.85,1.85,0,0,1,.79-.2,1,1,0,0,1,.82.39,1.2,1.2,0,0,1,.09,1.09.12.12,0,0,0,0,.1.12.12,0,0,0,.08,0h5.52a.1.1,0,0,0,.09-.07c.53-1.47,7.12-19.54,8-21.85a.12.12,0,0,0,0-.1.13.13,0,0,0-.09,0H221a.1.1,0,0,0-.09.07L217,125.86c-.69,1.9-2.78,7.65-10.68,7.65-2.83,0-4.91-1-5.56-2.61-.55-1.37,0-3.23.64-5l3.89-10.68a.12.12,0,0,0,0-.1.12.12,0,0,0-.08,0H199A.12.12,0,0,0,198.92,115.12Z"/><path class="cls-79" d="M263,137.06a.09.09,0,0,0,.08.05h6.21a.12.12,0,0,0,.1-.07l3.91-10.75c.69-1.89,2.78-7.65,10.68-7.65,2.83,0,4.91,1,5.56,2.61.55,1.38,0,3.24-.64,5,0,0-3.34,9.15-3.89,10.68a.09.09,0,0,0,0,.09.1.1,0,0,0,.08.05h6.21a.11.11,0,0,0,.1-.07c.49-1.36,4.54-12.46,4.54-12.46,1.1-3,.91-5.66-.53-7.17-2.11-2.15-4.82-3.11-8.78-3.11a16.74,16.74,0,0,0-8.29,2.16,1.8,1.8,0,0,1-.8.21,1,1,0,0,1-.82-.39,1.22,1.22,0,0,1-.09-1.1.08.08,0,0,0,0-.09.12.12,0,0,0-.08,0H271a.12.12,0,0,0-.1.07L263,137A.1.1,0,0,0,263,137.06Z"/><path class="cls-79" d="M299.68,137.06a.1.1,0,0,0,.08.05h6.29a.1.1,0,0,0,.09-.07l6.61-18.14h4.46a.11.11,0,0,0,.1-.07l1.32-3.64a.09.09,0,0,0,0-.1.12.12,0,0,0-.08,0h-4.39l2.77-7.59a.1.1,0,0,0,0-.09.1.1,0,0,0-.08-.05h-6.29a.1.1,0,0,0-.09.07l-2.79,7.66H304a.11.11,0,0,0-.1.07l-1.32,3.64a.08.08,0,0,0,0,.09.1.1,0,0,0,.08.05h3.54s-5.89,16.16-6.58,18.07A.09.09,0,0,0,299.68,137.06Z"/><path class="cls-79" d="M172.87,126.07l-4,10.9a.1.1,0,0,0,0,.09.09.09,0,0,0,.08.05h7.39a.11.11,0,0,0,.1-.07l4-11,20.27-17.41,0,0a.74.74,0,0,0,.27-.57.76.76,0,0,0-.75-.75H194.2l-.06,0c-.54.48-6.35,5.43-11.87,10.13a4.7,4.7,0,0,1-2.8,1.07,2.19,2.19,0,0,1-2.17-1.3s0,0,0,0c-2-4.4-4.07-9.17-4.35-9.83a.11.11,0,0,0-.09-.07h-7a.75.75,0,0,0-.74.75.8.8,0,0,0,.06.3C167,112.49,172.87,126.07,172.87,126.07Z"/><path class="cls-79" d="M280.79,144.15s-.05,0-.08,0h-.42a11.27,11.27,0,0,0-7.7,2.75h-.11l.69-1.89a.09.09,0,0,0,0-.09.11.11,0,0,0-.09,0h-6.14a.1.1,0,0,0-.09.07l-8,21.86a.08.08,0,0,0,0,.09.09.09,0,0,0,.08,0h6.82a.09.09,0,0,0,.09-.07l4.25-11.66c.66-2,1.36-3.56,3.88-4.78a12.54,12.54,0,0,1,4.87-1,.11.11,0,0,0,.1-.07l1.83-5A.1.1,0,0,0,280.79,144.15Z"/><path class="cls-79" d="M293.45,144.83h-6.28a.11.11,0,0,0-.1.07l-8,21.86a.1.1,0,0,0,0,.09s.05,0,.08,0h6.29a.09.09,0,0,0,.09-.07l8-21.85a.09.09,0,0,0,0-.09A.11.11,0,0,0,293.45,144.83Z"/><path class="cls-79" d="M327.06,144.83h-6.29a.1.1,0,0,0-.09.07l-8,21.86a.14.14,0,0,0,0,.09.1.1,0,0,0,.09,0h6.28a.1.1,0,0,0,.1-.07c.57-1.56,7.23-19.86,7.95-21.85a.09.09,0,0,0,0-.09A.1.1,0,0,0,327.06,144.83Z"/><path class="cls-79" d="M260.31,144.87a.12.12,0,0,0-.08,0H254a.11.11,0,0,0-.1.07L250,155.65a10.58,10.58,0,0,1-6.81,7.1,13.06,13.06,0,0,1-3.86.55c-2.84,0-4.92-1-5.57-2.62-.54-1.37,0-3.23.65-5L238.3,145a.11.11,0,0,0,0-.1.13.13,0,0,0-.09,0H232a.1.1,0,0,0-.09.07c-.5,1.35-4.54,12.46-4.54,12.46-1.11,3-.92,5.65.53,7.17,2.11,2.15,4.81,3.11,8.77,3.11a17.44,17.44,0,0,0,2.72-.21,16.38,16.38,0,0,0,5.58-2,1.7,1.7,0,0,1,.51-.17,1.35,1.35,0,0,1,.29,0,1,1,0,0,1,.82.39,1.23,1.23,0,0,1,.08,1.09.1.1,0,0,0,0,.09.09.09,0,0,0,.08,0h5.51a.12.12,0,0,0,.1-.07.15.15,0,0,1,0-.06c.42-1.17,7.27-20,7.93-21.79A.11.11,0,0,0,260.31,144.87Z"/><path class="cls-79" d="M176.49,143.8c-9.27,0-18.44,5.26-20.88,12a7.6,7.6,0,0,0,.81,7.23c2,2.91,6.17,4.65,11.05,4.65a25.56,25.56,0,0,0,17-6.54l0,0,0,0a.75.75,0,0,0-.59-1.22h-5.66l-.06,0a14.69,14.69,0,0,1-9,3c-2.85,0-5.14-.94-6.3-2.59a4.77,4.77,0,0,1-.42-4.54,9.9,9.9,0,0,1,4.55-5,15.16,15.16,0,0,1,7.39-2.18c3.51,0,6.19,1.43,7,3.73H170.15a.75.75,0,0,0-.73.56.13.13,0,0,0,0,.06,3,3,0,0,0,.47,2.6,2.66,2.66,0,0,0,2.16.93h15.42A.75.75,0,0,0,188,156l0,0a1.43,1.43,0,0,0,.08-.22,7.8,7.8,0,0,0-.76-7.43C185.36,145.45,181.39,143.8,176.49,143.8Z"/><path class="cls-79" d="M360.41,156v0l.09-.22a7.83,7.83,0,0,0-.77-7.43c-2-2.88-6-4.53-10.89-4.53-9.26,0-18.43,5.26-20.87,12a7.6,7.6,0,0,0,.81,7.23c2,2.91,6.17,4.65,11,4.65a25.56,25.56,0,0,0,17-6.54l0,0,0,0a.75.75,0,0,0-.59-1.22H350.6l-.06,0a14.66,14.66,0,0,1-9,3c-2.84,0-5.14-.94-6.29-2.59a4.77,4.77,0,0,1-.42-4.54,9.9,9.9,0,0,1,4.55-5,15.12,15.12,0,0,1,7.38-2.18c3.51,0,6.19,1.43,7,3.73H342.51a.75.75,0,0,0-.72.56.13.13,0,0,0,0,.06,3,3,0,0,0,.46,2.6,2.66,2.66,0,0,0,2.17.93h15.42A.76.76,0,0,0,360.41,156Z"/><path class="cls-79" d="M224.17,150.47c-1.17-3.82-5.94-6.39-11.88-6.39-8.93,0-18.1,5.21-20.43,11.61-1.21,3.33-.59,6.38,1.75,8.57s6,3.38,10.16,3.38a25.44,25.44,0,0,0,16-5.89l0,0v0h0a.74.74,0,0,0-.42-1.23l-.12,0h-5.57l-.07,0a13.7,13.7,0,0,1-8.05,2.83c-3.2,0-5.63-1-6.85-2.7a5.08,5.08,0,0,1-.39-4.82c1.55-4.26,6.71-7.36,12.26-7.36,3.25,0,5.32,1,6.33,3a.11.11,0,0,0,.09.05h6.52a.74.74,0,0,0,.68-.73.75.75,0,0,0,0-.2Z"/><path class="cls-79" d="M155.15,141l1.21-3.33a.11.11,0,0,0,0-.08.07.07,0,0,0-.06-.05,32.46,32.46,0,0,0-5.46-1.13,49,49,0,0,0-6.08-.36,35.74,35.74,0,0,0-13.17,2.31c-3.89,1.55-6.29,3.52-7.14,5.86a4.06,4.06,0,0,0,.89,4.39c1.18,1.28,3.58,2.68,7.13,4.16l1.46.66c5.46,2.31,7.91,4.36,7.28,6.1-.44,1.2-1.62,2.18-3.52,2.9a19.74,19.74,0,0,1-7.12,1.12,30.54,30.54,0,0,1-5.06-.44,47.25,47.25,0,0,1-5-1.16h0l-.19,0a.76.76,0,0,0-.69.45l-1.3,3.58a.11.11,0,0,0,0,.08s0,0,.06.05a31.35,31.35,0,0,0,5.66,1.21,48.48,48.48,0,0,0,5.75.35,38.53,38.53,0,0,0,13.82-2.27c3.94-1.51,6.37-3.49,7.24-5.87A4.17,4.17,0,0,0,150,155c-1.18-1.3-3.51-2.68-6.93-4.13l-1.27-.48c-5.82-2.35-8.46-4.41-7.83-6.13.44-1.22,1.67-2.21,3.67-2.94a21.43,21.43,0,0,1,7.41-1.13,32.15,32.15,0,0,1,4.93.38,31.76,31.76,0,0,1,4.25,1h0l.19,0a.75.75,0,0,0,.7-.49A0,0,0,0,1,155.15,141Z"/><path class="cls-79" d="M313,148.61l1.33-3.64a.14.14,0,0,0,0-.09.11.11,0,0,0-.09,0h-4.38l2.76-7.59a.09.09,0,0,0-.1-.13h-6.28a.11.11,0,0,0-.1.06l-2.79,7.66h-3.61a.1.1,0,0,0-.09.07l-1.33,3.64a.09.09,0,0,0,0,.09.11.11,0,0,0,.09.05h3.53l-6.58,18.08a.08.08,0,0,0,0,.09s0,0,.08,0h6.28a.1.1,0,0,0,.1-.07l6.61-18.14h4.46A.1.1,0,0,0,313,148.61Z"/><path class="cls-79" d="M391.66,144.81s0-.05-.07-.05a31,31,0,0,0-3.89-.66,37.11,37.11,0,0,0-4.29-.24,33.18,33.18,0,0,0-11.62,1.84c-3.25,1.22-5.25,2.8-5.94,4.69a2.78,2.78,0,0,0,.71,3.09c.88.93,2.88,2.1,5.94,3.5.22.12.55.29.93.47.68.32,1.27.64,1.79.94l.35.21c1.3.81,2,1.53,2,2.15h0a.67.67,0,0,1,0,.2.61.61,0,0,1-.05.18c-.29.82-1.21,1.5-2.74,2a16.64,16.64,0,0,1-5.46.8,20.85,20.85,0,0,1-4.11-.39,18.47,18.47,0,0,1-3.07-.87h0a.74.74,0,0,0-.25,0h0a.75.75,0,0,0-.7.5l0,0-.77,2.13-.5,1.35a.19.19,0,0,0,0,.08s0,0,.07,0c1.5.26,3,.47,4.55.62s3.1.23,4.6.23a35.84,35.84,0,0,0,12-1.75c3.23-1.16,5.22-2.73,5.93-4.67a3.42,3.42,0,0,0,.22-1.35,3.33,3.33,0,0,0-.91-2.05c-.9-1-2.8-2.2-5.63-3.47l-1.34-.59c-3-1.38-4.33-2.55-3.95-3.58a3.71,3.71,0,0,1,2.5-1.9,14.44,14.44,0,0,1,4.84-.74,20.32,20.32,0,0,1,4.27.39,13.56,13.56,0,0,1,1.4.39c.33.12.66.23,1,.37h0a.74.74,0,0,0,.32.07h0a.78.78,0,0,0,.22,0,.75.75,0,0,0,.48-.47l1.23-3.38s0,0,0,0Z"/></g></g></svg>