<svg xmlns="http://www.w3.org/2000/svg" xmlns:xlink="http://www.w3.org/1999/xlink" width="404.886" height="45.757" viewBox="0 0 404.886 45.757">
  <defs>
    <linearGradient id="linear-gradient" x1="0.5" x2="0.5" y2="1" gradientUnits="objectBoundingBox">
      <stop offset="0" stop-color="#00408a"/>
      <stop offset="1" stop-color="#0093db"/>
    </linearGradient>
  </defs>
  <g id="Group_252" data-name="Group 252" transform="translate(496.548 -1474.115)">
    <path id="Path_388" data-name="Path 388" d="M-473.222,1472.694h-.006v-1.083h0a.639.639,0,0,1,.641-.638s.057,0,.083.007l.032,0a23.085,23.085,0,0,1,17.78,15.265v.006a.662.662,0,0,1,.032.2.642.642,0,0,1-.641.641h-14.032a.168.168,0,0,1-.039,0h-.025l-.058-.009h-.006a.645.645,0,0,1-.464-.382h0l-1.1-2.707A31.279,31.279,0,0,1-473.222,1472.694Zm-13.123,21.875h0l.006-.014h0a.73.73,0,0,0,.044-.239.64.64,0,0,0-.647-.638h-11.975a.638.638,0,0,0-.641.632v.021a22.99,22.99,0,0,0,6.156,15.034.02.02,0,0,1,.013.016.661.661,0,0,0,.458.191.651.651,0,0,0,.6-.4h0Zm20.328,18.978h0c-.007-.007-.007-.014-.014-.02l-7.223-17.612a.031.031,0,0,1-.013-.029,3.5,3.5,0,0,0-3.253-2.2,3.512,3.512,0,0,0-3.156,1.972l-7.337,17.873v.006h0a.635.635,0,0,0-.051.244.647.647,0,0,0,.325.556.209.209,0,0,0,.025.019,22.966,22.966,0,0,0,10.2,2.373,22.9,22.9,0,0,0,10.189-2.373l.013-.01a.637.637,0,0,0,.343-.565.723.723,0,0,0-.044-.234Zm12.539-19.2v-.03a.639.639,0,0,0-.641-.638h-11.975a.639.639,0,0,0-.641.638.568.568,0,0,0,.051.252h0l5.99,14.61h0a.652.652,0,0,0,.591.394.625.625,0,0,0,.444-.185.073.073,0,0,0,.032-.022A22.992,22.992,0,0,0-453.478,1494.347Zm-44.251-7.255H-483.7l.044,0a.637.637,0,0,0,.54-.4h0l1.111-2.709a31.1,31.1,0,0,0,2.191-11.288h0v-1.083h0a.638.638,0,0,0-.635-.638.754.754,0,0,0-.1.007.079.079,0,0,1-.026,0,23.092,23.092,0,0,0-17.773,15.258v.012a.513.513,0,0,0-.032.2A.638.638,0,0,0-497.729,1487.092Z" transform="translate(3.011 3.142)" fill="url(#linear-gradient)"/>
    <g id="Group_251" data-name="Group 251" transform="translate(-431.496 1479.654)">
      <path id="Path_422" data-name="Path 422" d="M-166.752,1479.439h2.053a.039.039,0,0,0,.025-.01l4.613-2.543c.012,0,.012-.01.018-.01a.663.663,0,0,0,.3-.33.265.265,0,0,0-.247-.394h-3.018s-.032.007-.037.016l-3.678,2.557a.673.673,0,0,0-.279.318A.272.272,0,0,0-166.752,1479.439Z" transform="translate(479.502 -1475.812)" fill="#00438d"/>
      <path id="Path_423" data-name="Path 423" d="M-169.926,1492.9a12,12,0,0,0,5.247-1.336s.025,0,.032-.007a1.2,1.2,0,0,1,.509-.127c.5,0,.762.394.622.908l-.039.1c-.006.032.007.055.039.055h3.119a.081.081,0,0,0,.077-.055l4.377-12.022a.056.056,0,0,0-.007-.053h-3.157s-.057.025-.064.053l-.794,2.154-.293-.5c-.82-1.369-2.534-2.122-4.827-2.122a12.712,12.712,0,0,0-7.025,2.14,8.42,8.42,0,0,0-3.678,4.336,4.509,4.509,0,0,0,.445,4.412C-174.308,1492.167-172.391,1492.9-169.926,1492.9Zm-2.331-6.361a5.82,5.82,0,0,1,2.007-2.6,8.191,8.191,0,0,1,4.91-1.607h.14a4.007,4.007,0,0,1,3.6,1.562,2.845,2.845,0,0,1,.114,2.5,5.715,5.715,0,0,1-1.962,2.55,8.007,8.007,0,0,1-4.8,1.563h-.133a4.221,4.221,0,0,1-3.742-1.649A2.662,2.662,0,0,1-172.257,1486.539Z" transform="translate(478.267 -1475.298)" fill="#00438d"/>
      <path id="Path_424" data-name="Path 424" d="M-417.1,1479.439h2.414a.107.107,0,0,0,.039-.013l2.6-1.633,1.417,1.633c0,.009.012.013.012.013h2.458a.622.622,0,0,0,.534-.4.3.3,0,0,0-.05-.318c-.014-.006-2.5-2.56-2.5-2.56l-.019-.012h-2.554a.061.061,0,0,0-.031.012l-4.276,2.554a.642.642,0,0,0-.3.324C-417.42,1479.257-417.312,1479.439-417.1,1479.439Z" transform="translate(445.629 -1475.812)" fill="#00438d"/>
      <path id="Path_425" data-name="Path 425" d="M-412.352,1479.934c-4.992,0-9.948,2.858-11.275,6.5a4.128,4.128,0,0,0,.921,4.554,7.563,7.563,0,0,0,5.457,1.906c4.866,0,9.87-2.9,11.167-6.46C-404.773,1482.849-407.587,1479.934-412.352,1479.934Zm2.535,6.5c-.781,2.147-3.557,3.771-6.454,3.771-2.75,0-4.37-1.693-3.615-3.771a5.187,5.187,0,0,1,2.4-2.642,8.181,8.181,0,0,1,3.976-1.173C-410.662,1482.623-409.041,1484.3-409.817,1486.438Z" transform="translate(444.74 -1475.299)" fill="#00438d"/>
      <path id="Path_426" data-name="Path 426" d="M-280.566,1479.413h2.058l.032-.007,4.612-2.548c.006,0,.006,0,.013-.006a.62.62,0,0,0,.3-.33.266.266,0,0,0-.248-.394h-3.024a.126.126,0,0,0-.032.012l-3.677,2.56a.621.621,0,0,0-.274.321C-280.891,1479.239-280.782,1479.413-280.566,1479.413Z" transform="translate(464.103 -1475.815)" fill="#00438d"/>
      <path id="Path_427" data-name="Path 427" d="M-269.371,1482.091a5.273,5.273,0,0,0,1.518-.689,4.393,4.393,0,0,0,1.08-1.032,5.778,5.778,0,0,0,.712-1.271l.489-1.214a.04.04,0,0,0-.039-.053h-2.706a.1.1,0,0,0-.083.053l-.553,1.378a2.1,2.1,0,0,1-.394.636,2.193,2.193,0,0,1-.539.431,2.313,2.313,0,0,1-.636.245,3.271,3.271,0,0,1-.617.073h-3.246a.115.115,0,0,0-.076.055l-2.141,5.9a5.777,5.777,0,0,1-5.87,4.205c-1.562,0-2.705-.537-3.062-1.435a4.247,4.247,0,0,1,.357-2.77l2.147-5.9c.006-.029-.007-.055-.032-.055H-286.5a.093.093,0,0,0-.07.055l-2.49,6.841c-.6,1.67-.5,3.106.292,3.942a6.251,6.251,0,0,0,4.829,1.709,9.144,9.144,0,0,0,4.56-1.191.988.988,0,0,1,.438-.111c.438,0,.661.375.5.832-.014.032,0,.053.025.053h3.049a.076.076,0,0,0,.069-.053l3.786-10.386c.026,0,.058.006.083.006A7.5,7.5,0,0,0-269.371,1482.091Z" transform="translate(462.938 -1475.584)" fill="#00438d"/>
      <path id="Path_428" data-name="Path 428" d="M-420.983,1480.575a.419.419,0,0,0,.019-.2l-.007-.016c-.679-2.738-3.6-4.507-7.439-4.507-5.52,0-11.644,4-13.365,8.737a6.286,6.286,0,0,0,.744,6.235,7.8,7.8,0,0,0,6.327,2.624,15.729,15.729,0,0,0,10.437-4.361s.006-.01.012-.012a.619.619,0,0,0,.14-.217.274.274,0,0,0-.242-.406.044.044,0,0,0-.018,0h-3.551a.083.083,0,0,0-.039.016,10.334,10.334,0,0,1-5.691,1.947c-3.488,0-5.585-2.665-4.479-5.707a9.77,9.77,0,0,1,8.645-5.819,5.128,5.128,0,0,1,4.44,2.083.149.149,0,0,0,.013.019h3.475l.019-.007A.655.655,0,0,0-420.983,1480.575Z" transform="translate(442.26 -1475.852)" fill="#00438d"/>
      <path id="Path_429" data-name="Path 429" d="M-361.62,1479.6h5.527l-4.834,13.289c-.006.032.007.055.039.055h3.488a.09.09,0,0,0,.083-.055l4.833-13.289h5.59a.083.083,0,0,0,.07-.054l1.067-2.928a.037.037,0,0,0-.032-.055h-14.725a.092.092,0,0,0-.069.055l-1.068,2.928A.037.037,0,0,0-361.62,1479.6Z" transform="translate(453.167 -1475.756)" fill="#00438d"/>
      <path id="Path_430" data-name="Path 430" d="M-394.857,1479.945a9.2,9.2,0,0,0-4.562,1.188.98.98,0,0,1-.431.115c-.445,0-.661-.375-.5-.836a.036.036,0,0,0-.032-.053h-3.043a.083.083,0,0,0-.076.053l-4.377,12.022a.037.037,0,0,0,.037.055h3.424a.089.089,0,0,0,.077-.055l2.14-5.895a5.786,5.786,0,0,1,5.876-4.205c1.555,0,2.706.539,3.062,1.435a4.247,4.247,0,0,1-.356,2.77l-2.147,5.895c-.012.032,0,.055.032.055h3.43a.085.085,0,0,0,.07-.055l2.49-6.838c.61-1.671.5-3.109-.292-3.942A6.251,6.251,0,0,0-394.857,1479.945Z" transform="translate(446.913 -1475.298)" fill="#00438d"/>
      <path id="Path_431" data-name="Path 431" d="M-141.4,1481.654a6.239,6.239,0,0,0-4.822-1.709,9.175,9.175,0,0,0-4.562,1.188,1,1,0,0,1-.438.115c-.444,0-.661-.375-.495-.836.012-.028,0-.053-.032-.053h-3.043a.07.07,0,0,0-.07.053l-4.377,12.022a.068.068,0,0,0,0,.055h3.456a.086.086,0,0,0,.076-.055l2.147-5.895a5.777,5.777,0,0,1,5.87-4.205c1.556,0,2.707.539,3.056,1.435a4.247,4.247,0,0,1-.35,2.77l-2.147,5.895c-.014.032,0,.055.031.055h3.431a.073.073,0,0,0,.07-.055l2.49-6.838C-140.5,1483.924-140.61,1482.486-141.4,1481.654Z" transform="translate(480.555 -1475.298)" fill="#00438d"/>
      <path id="Path_432" data-name="Path 432" d="M-186.623,1492.9c4.853,0,9.866-2.9,11.168-6.46,1.3-3.586-1.512-6.5-6.277-6.5-4.993,0-9.948,2.858-11.275,6.5a4.162,4.162,0,0,0,.921,4.554A7.57,7.57,0,0,0-186.623,1492.9Zm-2.643-6.458a5.232,5.232,0,0,1,2.389-2.642,8.251,8.251,0,0,1,3.989-1.173c2.846,0,4.466,1.675,3.691,3.815s-3.557,3.771-6.454,3.771C-188.4,1490.208-190.021,1488.516-189.266,1486.438Z" transform="translate(475.946 -1475.299)" fill="#00438d"/>
      <path id="Path_433" data-name="Path 433" d="M-317.959,1493.448a15.721,15.721,0,0,0,10.444-4.361c.006,0,.013-.01.013-.012a.6.6,0,0,0,.14-.217.273.273,0,0,0-.242-.406l-.012,0h-3.557a.13.13,0,0,0-.044.016,10.317,10.317,0,0,1-5.686,1.947c-3.493,0-5.583-2.665-4.479-5.707a9.772,9.772,0,0,1,8.646-5.819,5.13,5.13,0,0,1,4.44,2.083c0,.012.012.019.032.019h3.455l.019-.007a.649.649,0,0,0,.56-.406.359.359,0,0,0,.018-.2l-.006-.016c-.68-2.738-3.6-4.507-7.445-4.507-5.513,0-11.637,4-13.352,8.737a6.287,6.287,0,0,0,.73,6.235A7.813,7.813,0,0,0-317.959,1493.448Z" transform="translate(458.058 -1475.852)" fill="#00438d"/>
      <path id="Path_434" data-name="Path 434" d="M-307.642,1492.946h3.468a.086.086,0,0,0,.076-.055l2.472-6.79a5.623,5.623,0,0,1,5.5-3.31c1.563,0,2.707.54,3.062,1.435a4.284,4.284,0,0,1-.349,2.77l-2.148,5.894c-.018.032,0,.055.032.055h3.424a.086.086,0,0,0,.076-.055l2.491-6.838c.6-1.671.5-3.11-.292-3.942a6.271,6.271,0,0,0-4.835-1.709,10.44,10.44,0,0,0-4.135,1.188.96.96,0,0,1-.433.115.538.538,0,0,1-.52-.756l1.575-4.329c.012-.032,0-.055-.032-.055h-3.468a.085.085,0,0,0-.076.055l-5.921,16.271C-307.686,1492.923-307.673,1492.946-307.642,1492.946Z" transform="translate(460.471 -1475.756)" fill="#00438d"/>
      <path id="Path_435" data-name="Path 435" d="M-211.09,1492.946h3.468a.077.077,0,0,0,.07-.055l2.477-6.79a5.62,5.62,0,0,1,5.495-3.31c1.569,0,2.707.54,3.069,1.435a4.247,4.247,0,0,1-.356,2.77l-2.147,5.894c-.006.032.007.055.032.055h3.431a.089.089,0,0,0,.076-.055l2.484-6.838c.61-1.671.507-3.11-.293-3.942a6.233,6.233,0,0,0-4.827-1.709,10.472,10.472,0,0,0-4.136,1.188,1,1,0,0,1-.438.115.545.545,0,0,1-.521-.756l1.581-4.329a.054.054,0,0,0-.006-.055h-3.495a.087.087,0,0,0-.076.055l-5.919,16.271C-211.134,1492.923-211.12,1492.946-211.09,1492.946Z" transform="translate(473.535 -1475.756)" fill="#00438d"/>
      <path id="Path_436" data-name="Path 436" d="M-260.639,1482.334c1.555,0,2.705.539,3.062,1.435a4.247,4.247,0,0,1-.357,2.77l-2.14,5.895c-.014.032,0,.055.025.055h3.437a.086.086,0,0,0,.07-.055l2.49-6.838c.61-1.671.5-3.109-.292-3.942a6.253,6.253,0,0,0-4.828-1.709,9.168,9.168,0,0,0-4.561,1.188.984.984,0,0,1-.438.115c-.438,0-.661-.375-.5-.836.014-.028,0-.053-.025-.053h-3.049a.081.081,0,0,0-.069.053l-4.383,12.022c0,.032.006.055.037.055h3.431a.08.08,0,0,0,.07-.055l2.147-5.895A5.775,5.775,0,0,1-260.639,1482.334Z" transform="translate(465.272 -1475.298)" fill="#00438d"/>
      <path id="Path_437" data-name="Path 437" d="M-211.237,1492.232l-4.929-7.359,10.126-7.464a.7.7,0,0,0,.223-.28.28.28,0,0,0-.267-.409h-3.754a.084.084,0,0,0-.044.013l-9.56,6.975,2.617-7.1c.012-.028,0-.051-.032-.051H-220.7a.082.082,0,0,0-.07.051l-6.015,16.287c-.014.032,0,.055.032.055h3.843a.085.085,0,0,0,.069-.055l2.687-7.267,4.516,7.306a.07.07,0,0,0,.019.016h3.843a.654.654,0,0,0,.565-.41.338.338,0,0,0-.018-.3A.012.012,0,0,0-211.237,1492.232Z" transform="translate(471.415 -1475.757)" fill="#00438d"/>
      <path id="Path_438" data-name="Path 438" d="M-238.09,1506.7h-2.979a.082.082,0,0,0-.076.053l-.75,2.058c-.006.028.007.055.032.055h2.986a.091.091,0,0,0,.076-.055l.75-2.058A.037.037,0,0,0-238.09,1506.7Z" transform="translate(469.372 -1471.678)" fill="#00438d"/>
      <path id="Path_439" data-name="Path 439" d="M-238.837,1493.483c-.077.216.031.391.247.391h2.414a.137.137,0,0,0,.037-.01l2.6-1.632,1.417,1.632.012.01h2.459a.616.616,0,0,0,.534-.391.294.294,0,0,0-.051-.325c-.007-.006-2.5-2.56-2.5-2.56a.035.035,0,0,0-.019-.006h-2.548c-.013,0-.025,0-.031.006l-4.282,2.556A.633.633,0,0,0-238.837,1493.483Z" transform="translate(469.782 -1473.857)" fill="#00438d"/>
      <path id="Path_440" data-name="Path 440" d="M-234.04,1494.246c-5.1,0-10.138,2.891-11.479,6.581-1.29,3.539,1.691,6.531,6.518,6.531a14.033,14.033,0,0,0,9.395-3.659.205.205,0,0,0,.032-.035.671.671,0,0,0,.121-.193.281.281,0,0,0-.268-.414h-3.347a.131.131,0,0,0-.051.02,8.076,8.076,0,0,1-4.93,1.67c-2.871,0-4.5-1.721-3.7-3.919a5.455,5.455,0,0,1,2.509-2.772,8.381,8.381,0,0,1,4.059-1.2c1.931,0,3.4.788,3.843,2.052l-6.047,0a.65.65,0,0,0-.56.41.48.48,0,0,0-.019.1,1.421,1.421,0,0,0,1.475,1.774h8.308a.582.582,0,0,0,.33-.117.669.669,0,0,0,.235-.311C-226.341,1497.175-229.225,1494.246-234.04,1494.246Z" transform="translate(468.841 -1473.363)" fill="#00438d"/>
      <path id="Path_441" data-name="Path 441" d="M-217.926,1495.1h-2.44l1.1-3.036c.013-.026,0-.051-.039-.051h-3.468a.086.086,0,0,0-.064.051l-1.1,3.036h-1.977a.109.109,0,0,0-.069.051l-.724,2.011c-.019.028,0,.053.032.053h1.97l-3.627,9.961c-.007.031.006.053.032.053h3.468a.079.079,0,0,0,.076-.053l3.627-9.961h2.439a.094.094,0,0,0,.077-.053l.723-2.011A.034.034,0,0,0-217.926,1495.1Z" transform="translate(471.206 -1473.665)" fill="#00438d"/>
      <path id="Path_442" data-name="Path 442" d="M-249.742,1492.43a.275.275,0,0,0-.261-.41h-3.723a.094.094,0,0,0-.062.028l-7.986,9.518a1.377,1.377,0,0,1-.94.449.576.576,0,0,1-.61-.449l-1.214-9.518a.046.046,0,0,0-.012-.028h-3.138a.649.649,0,0,0-.56.41.5.5,0,0,0-.018.216v.016l2.108,14.547c0,.016.019.028.039.028h3.64a.076.076,0,0,0,.058-.028l12.577-14.6A.409.409,0,0,0-249.742,1492.43Z" transform="translate(465.803 -1473.664)" fill="#00438d"/>
      <path id="Path_443" data-name="Path 443" d="M-172.834,1494.785h-3.126a.089.089,0,0,0-.076.055l-.781,2.152-.3-.5c-.82-1.366-2.535-2.119-4.827-2.119a12.664,12.664,0,0,0-7.02,2.141,8.424,8.424,0,0,0-3.685,4.339,4.508,4.508,0,0,0,.445,4.411c1.035,1.332,2.96,2.069,5.412,2.069a12.062,12.062,0,0,0,5.254-1.337.154.154,0,0,0,.031-.007,1.221,1.221,0,0,1,.515-.127.648.648,0,0,1,.615.91l-.037.094c-.007.029.006.054.037.054h3.126a.076.076,0,0,0,.07-.054l4.377-12.024A.036.036,0,0,0-172.834,1494.785Zm-5.507,6.045a5.69,5.69,0,0,1-1.963,2.547,8,8,0,0,1-4.8,1.562h-.134a4.223,4.223,0,0,1-3.741-1.645,2.668,2.668,0,0,1-.141-2.328,5.8,5.8,0,0,1,2.008-2.594,8.171,8.171,0,0,1,4.916-1.608h.134a4,4,0,0,1,3.6,1.562A2.825,2.825,0,0,1-178.341,1500.83Z" transform="translate(475.986 -1473.346)" fill="#00438d"/>
      <path id="Path_444" data-name="Path 444" d="M-155.229,1494.37a8.594,8.594,0,0,0-4.967,1.581,2.626,2.626,0,0,0-.482.35,1.532,1.532,0,0,0-.185-.341,3.767,3.767,0,0,0-3.442-1.59,7.684,7.684,0,0,0-3.341.758l-.007,0a.041.041,0,0,0-.025.012.9.9,0,0,1-.4.121.3.3,0,0,1-.285-.394c.012-.054-.014-.092-.065-.092h-3.188a.151.151,0,0,0-.127.1l-4.339,11.923c-.019.057,0,.1.051.1h3.488a.169.169,0,0,0,.133-.1l1.944-5.358c.579-1.6,1.576-4.323,4.441-4.323a1.963,1.963,0,0,1,1.931,1.007,4.162,4.162,0,0,1-.388,2.611l-2.21,6.063c-.019.057,0,.1.051.1h3.493a.153.153,0,0,0,.127-.1l1.95-5.358.069-.2a7.872,7.872,0,0,1,1.664-3.046,4.282,4.282,0,0,1,2.834-1.076,1.925,1.925,0,0,1,1.868.917c.286.657-.242,2.1-.464,2.7l-2.2,6.063c-.019.057.006.1.057.1h3.488a.152.152,0,0,0,.127-.1l2.338-6.428c.578-1.583,1.016-3.113.064-4.422C-151.944,1494.9-153.284,1494.37-155.229,1494.37Z" transform="translate(478.276 -1473.347)" fill="#00438d"/>
      <path id="Path_445" data-name="Path 445" d="M-189.049,1491h-3.722s-.058.022-.07.05l-4.377,11.917-4.733-11.949a.045.045,0,0,0-.025-.018h-4.148a.087.087,0,0,0-.076.05l-5.984,16.275c-.006.029.007.054.039.054h3.716a.091.091,0,0,0,.07-.054l3.329-9.061a1.518,1.518,0,0,1,1.3-.944.619.619,0,0,1,.616.365c.006.006,3.932,9.672,3.932,9.672l.014.021h4.1a.076.076,0,0,0,.07-.054l5.977-16.275A.031.031,0,0,0-189.049,1491Z" transform="translate(473.392 -1473.803)" fill="#00438d"/>
      <path id="Path_446" data-name="Path 446" d="M-319.887,1494.81a.058.058,0,0,0-.045-.025h-3.112a.048.048,0,0,0-.051.035l-.794,2.172-.3-.5c-.827-1.366-2.535-2.119-4.828-2.119a12.68,12.68,0,0,0-7.019,2.141,8.424,8.424,0,0,0-3.685,4.339,4.509,4.509,0,0,0,.445,4.411c1.029,1.332,2.96,2.069,5.419,2.069a12.1,12.1,0,0,0,5.253-1.337l.025-.007a1.22,1.22,0,0,1,.514-.127.655.655,0,0,1,.528.233.758.758,0,0,1,.083.673l-.019.076a.04.04,0,0,0,.006.051.045.045,0,0,0,.026.022h3.125c.032,0,.051-.013.057-.038.311-.858,3.977-10.921,4.377-12.016A.071.071,0,0,0-319.887,1494.81Zm-5.521,6.02a5.7,5.7,0,0,1-1.969,2.547,8,8,0,0,1-4.8,1.562h-.127a4.232,4.232,0,0,1-3.748-1.645,2.668,2.668,0,0,1-.14-2.328,5.8,5.8,0,0,1,2.007-2.594,8.172,8.172,0,0,1,4.91-1.608h.134a4.01,4.01,0,0,1,3.608,1.56A2.871,2.871,0,0,1-325.408,1500.83Z" transform="translate(456.086 -1473.346)" fill="#00438d"/>
      <path id="Path_447" data-name="Path 447" d="M-277.09,1494.785H-280.2s-.05.016-.057.035c-.171.477-.794,2.172-.794,2.172l-.293-.5c-.819-1.366-2.534-2.119-4.827-2.119a12.68,12.68,0,0,0-7.02,2.141,8.409,8.409,0,0,0-3.678,4.339,4.524,4.524,0,0,0,.439,4.411c1.035,1.332,2.96,2.069,5.418,2.069a12.081,12.081,0,0,0,5.254-1.337.143.143,0,0,0,.025-.007,1.212,1.212,0,0,1,.509-.127.637.637,0,0,1,.527.233.758.758,0,0,1,.1.673l-.032.076a.078.078,0,0,0,.012.051.05.05,0,0,0,.039.022h3.119s.044-.013.051-.038l4.377-12.016a.047.047,0,0,0-.007-.051A.059.059,0,0,0-277.09,1494.785Zm-5.477,6.045a5.713,5.713,0,0,1-1.962,2.547,8,8,0,0,1-4.8,1.562h-.133a4.234,4.234,0,0,1-3.742-1.645,2.665,2.665,0,0,1-.133-2.328,5.754,5.754,0,0,1,2.007-2.594,8.134,8.134,0,0,1,4.9-1.608h.14a4,4,0,0,1,3.6,1.56A2.85,2.85,0,0,1-282.566,1500.83Z" transform="translate(461.884 -1473.346)" fill="#00438d"/>
      <path id="Path_448" data-name="Path 448" d="M-338.278,1494.736h-3.412a.069.069,0,0,0-.057.035c-.159.438-2.154,5.91-2.154,5.917a5.777,5.777,0,0,1-5.87,4.2c-1.562,0-2.707-.537-3.062-1.435a4.289,4.289,0,0,1,.355-2.77l2.141-5.873a.04.04,0,0,0-.012-.051.079.079,0,0,0-.019-.025H-353.8a.054.054,0,0,0-.051.035l-2.5,6.857c-.61,1.67-.507,3.11.293,3.942a6.242,6.242,0,0,0,4.827,1.712,9.19,9.19,0,0,0,4.562-1.192.973.973,0,0,1,.438-.11.527.527,0,0,1,.451.212.658.658,0,0,1,.037.6.069.069,0,0,0,.014.047.071.071,0,0,0,.025.021h3.049s.044-.012.051-.037c.3-.807,3.919-10.746,4.382-12.016a.15.15,0,0,0-.006-.051A.069.069,0,0,0-338.278,1494.736Z" transform="translate(453.832 -1473.297)" fill="#00438d"/>
      <path id="Path_449" data-name="Path 449" d="M-310.157,1494.372a9.181,9.181,0,0,0-4.567,1.191.99.99,0,0,1-.438.112.535.535,0,0,1-.451-.213.691.691,0,0,1-.045-.6.049.049,0,0,0-.006-.051.222.222,0,0,0-.025-.025h-3.056s-.044.016-.051.035c-.248.7-4.37,12.022-4.37,12.022a.04.04,0,0,0,.006.051.053.053,0,0,0,.044.022h3.418a.061.061,0,0,0,.051-.038l2.154-5.911a5.77,5.77,0,0,1,5.87-4.2c1.555,0,2.7.537,3.062,1.432a4.217,4.217,0,0,1-.363,2.769l-2.134,5.876a.052.052,0,0,0,.007.051c.007.013.032.022.032.022h3.431a.052.052,0,0,0,.05-.038c.274-.744,2.5-6.855,2.5-6.855.61-1.67.5-3.106-.286-3.938A6.252,6.252,0,0,0-310.157,1494.372Z" transform="translate(458.374 -1473.346)" fill="#00438d"/>
      <path id="Path_450" data-name="Path 450" d="M-295.7,1497.32l.73-2a.148.148,0,0,0-.006-.051.187.187,0,0,0-.026-.025h-2.433l1.519-4.173a.052.052,0,0,0-.007-.051.141.141,0,0,0-.025-.025h-3.475s-.051.016-.051.037c-.235.636-1.537,4.212-1.537,4.212H-303a.136.136,0,0,0-.051.035l-.724,2a.078.078,0,0,0,0,.051.056.056,0,0,0,.051.022h1.944s-3.239,8.894-3.62,9.945a.074.074,0,0,0,.006.051.315.315,0,0,0,.026.022h3.474s.045-.013.051-.037c.311-.846,3.634-9.98,3.634-9.98h2.458A.05.05,0,0,0-295.7,1497.32Z" transform="translate(460.778 -1473.803)" fill="#00438d"/>
      <path id="Path_451" data-name="Path 451" d="M-350.972,1491.717a.412.412,0,0,0,.152-.314.41.41,0,0,0-.406-.41h-3.348s-.031.006-.037.016c-.3.26-3.493,2.989-6.525,5.574a2.614,2.614,0,0,1-1.55.587,1.212,1.212,0,0,1-1.188-.714c0-.007-.007-.013-.007-.02-1.08-2.424-2.242-5.041-2.394-5.41a.061.061,0,0,0-.051-.034h-3.85a.413.413,0,0,0-.406.41.542.542,0,0,0,.032.171c.984,2.261,4.237,9.725,4.237,9.725s-1.868,5.152-2.179,6a.074.074,0,0,0,.007.051c.006.013.032.022.032.022h4.085a.042.042,0,0,0,.044-.037c.267-.712,2.2-6.035,2.2-6.035l11.136-9.566C-350.972,1491.726-350.972,1491.719-350.972,1491.717Z" transform="translate(451.959 -1473.803)" fill="#00438d"/>
      <path id="Path_452" data-name="Path 452" d="M-238.391,1493.386h-.007a5.883,5.883,0,0,0,.458-.893l4.4-12.078a.033.033,0,0,0-.032-.051H-236.7a.084.084,0,0,0-.069.051l-.788,2.157-.3-.5c-.82-1.367-2.535-2.119-4.827-2.119a12.679,12.679,0,0,0-7.02,2.141,8.417,8.417,0,0,0-3.684,4.339,4.528,4.528,0,0,0,.437,4.412c1.042,1.331,2.967,2.064,5.432,2.064a12,12,0,0,0,5.241-1.337c.018,0,.025,0,.032-.006a1.218,1.218,0,0,1,.514-.127.647.647,0,0,1,.615.908l-.032.1a4.7,4.7,0,0,1-1.163,1.531h.014a8.9,8.9,0,0,1-5.781,2.007H-249.8c-.019,0-.039.019-.051.038l-.305.857-4.345,11.936c-.019.029,0,.054.032.054H-251a.083.083,0,0,0,.07-.054l3.741-10.275C-243.486,1498.023-239.985,1495.99-238.391,1493.386Zm-7.451-2.869h-.127a4.22,4.22,0,0,1-3.748-1.649,2.639,2.639,0,0,1-.134-2.325,5.774,5.774,0,0,1,2.007-2.6,8.178,8.178,0,0,1,4.9-1.608h.14a4.007,4.007,0,0,1,3.6,1.564,2.82,2.82,0,0,1,.115,2.5,5.635,5.635,0,0,1-1.963,2.548A7.97,7.97,0,0,1-245.842,1490.518Z" transform="translate(467.665 -1475.298)" fill="#00438d"/>
      <path id="Path_453" data-name="Path 453" d="M-370.113,1480.363h-3.131a.078.078,0,0,0-.064.051l-.788,2.157-.3-.5c-.82-1.367-2.534-2.119-4.827-2.119a12.7,12.7,0,0,0-7.026,2.141,8.4,8.4,0,0,0-3.677,4.339,4.5,4.5,0,0,0,.444,4.412c1.035,1.331,2.954,2.064,5.419,2.064a12.031,12.031,0,0,0,5.253-1.337.043.043,0,0,0,.026-.006,1.2,1.2,0,0,1,.514-.127c.495,0,.756.394.616.908l-.039.1a4.6,4.6,0,0,1-1.156,1.531h.012a8.9,8.9,0,0,1-5.787,2.007,7.069,7.069,0,0,1-1.633-.178h-.007s-.051.013-.057.038l-.959,2.624a.039.039,0,0,0,.012.044.057.057,0,0,0,.039.032,11.137,11.137,0,0,0,1.682.127c4.334,0,8.76-2.258,10.615-5.285h-.007a8.249,8.249,0,0,0,.464-.893l4.389-12.078A.033.033,0,0,0-370.113,1480.363Zm-5.5,6.041a5.7,5.7,0,0,1-1.97,2.548,7.983,7.983,0,0,1-4.8,1.566h-.134a4.223,4.223,0,0,1-3.741-1.649,2.657,2.657,0,0,1-.14-2.325,5.813,5.813,0,0,1,2.007-2.6,8.192,8.192,0,0,1,4.91-1.608h.14a4.014,4.014,0,0,1,3.6,1.564A2.86,2.86,0,0,1-375.613,1486.4Z" transform="translate(449.292 -1475.298)" fill="#00438d"/>
      <path id="Path_454" data-name="Path 454" d="M-347.77,1480.662a.451.451,0,0,0-.019.162v.012l1.327,10.787a.057.057,0,0,1-.018.05l-2.91,3.053c-.007,0-.007.009-.012.013s0,.007-.007.01a.488.488,0,0,0-.114.181.24.24,0,0,0,.228.359h3.417a.093.093,0,0,0,.057-.028l13.62-14.391.012-.019a.442.442,0,0,0,.12-.187c.076-.2-.018-.359-.216-.359h-3.431a.119.119,0,0,0-.057.025l-7.223,7.649a.065.065,0,0,1-.05.025s-.039-.009-.039-.029l-.94-7.638a.036.036,0,0,0-.039-.032h-3.22A.562.562,0,0,0-347.77,1480.662Z" transform="translate(454.805 -1475.25)" fill="#00438d"/>
    </g>
  </g>
</svg>
